# xmcd
#
# Track frame offsets: 
#        155
#        20942
#        43024
#        64980
#        87511
#        111809
#        131598
#        152538
#        173449
#        198102
#        218466
#        245073
#        265653
#        285682
#
# Disc length: 4079 seconds
#
# Revision: 6
# Processed by: cddbd v1.5.2PL0 Copyright (c) Steve Scherf et al.
# Submitted via: ExactAudioCopy v1.0b3
#
DISCID=c30fed0e
DTITLE=奥華子 - vol.best
DYEAR=2005
DGENRE=Japanese Pops
TTITLE0=小さな星
TTITLE1=雲よりも遠く
TTITLE2=涙の色
TTITLE3=そんな気がした
TTITLE4=楔
TTITLE5=笑った数
TTITLE6=片想い
TTITLE7=愛されていたい
TTITLE8=境界線
TTITLE9=虹色の目
TTITLE10=その手
TTITLE11=伝えたい言葉
TTITLE12=自由のカメ
TTITLE13=笑って笑って
EXTD=YEAR: 2005
EXTT0=
EXTT1=
EXTT2=
EXTT3=
EXTT4=
EXTT5=
EXTT6=
EXTT7=
EXTT8=
EXTT9=
EXTT10=
EXTT11=
EXTT12=
EXTT13=
PLAYORDER=
